<svg id="visual" viewBox="0 0 960 540" width="960" height="540" xmlns="http://www.w3.org/2000/svg" xmlns:xlink="http://www.w3.org/1999/xlink" version="1.1"><rect x="0" y="0" width="960" height="540" fill="#131415"></rect><path d="M0 178L14.5 173.8C29 169.7 58 161.3 87.2 162.2C116.3 163 145.7 173 174.8 178C204 183 233 183 262 167.8C291 152.7 320 122.3 349 121.5C378 120.7 407 149.3 436.2 158.7C465.3 168 494.7 158 523.8 152C553 146 582 144 611 146C640 148 669 154 698 156.5C727 159 756 158 785.2 159.7C814.3 161.3 843.7 165.7 872.8 163.7C902 161.7 931 153.3 945.5 149.2L960 145L960 0L945.5 0C931 0 902 0 872.8 0C843.7 0 814.3 0 785.2 0C756 0 727 0 698 0C669 0 640 0 611 0C582 0 553 0 523.8 0C494.7 0 465.3 0 436.2 0C407 0 378 0 349 0C320 0 291 0 262 0C233 0 204 0 174.8 0C145.7 0 116.3 0 87.2 0C58 0 29 0 14.5 0L0 0Z" fill="#6EE7B7" stroke-linecap="round" stroke-linejoin="miter"></path></svg>